<svg width="160.18" height="14.301" viewBox="0 0 160.18 14.301" xmlns="http://www.w3.org/2000/svg"><g id="svgGroup" stroke-linecap="round" fill-rule="evenodd" font-size="9pt" stroke="#000" stroke-width="0" fill="#424144" style="stroke:#000;stroke-width:0;fill:#424144"><path d="M 117.64 0.2 L 120.8 0.2 L 120.8 14.16 L 118 14.16 L 118 5.08 L 114.26 14.16 L 112.14 14.16 L 108.38 5.08 L 108.38 14.16 L 105.58 14.16 L 105.58 0.2 L 108.76 0.2 L 113.2 10.58 L 117.64 0.2 Z M 45.04 4.54 L 41.82 4.54 A 3.652 3.652 0 0 0 41.211 3.63 A 3.132 3.132 0 0 0 40.47 3.04 A 3.754 3.754 0 0 0 39.047 2.576 A 4.752 4.752 0 0 0 38.46 2.54 A 4.456 4.456 0 0 0 37.173 2.721 A 3.874 3.874 0 0 0 36.29 3.11 A 3.883 3.883 0 0 0 34.827 4.688 A 4.608 4.608 0 0 0 34.81 4.72 A 4.752 4.752 0 0 0 34.367 6.082 A 6.367 6.367 0 0 0 34.28 7.16 Q 34.28 8.54 34.81 9.59 Q 35.34 10.64 36.29 11.21 Q 37.24 11.78 38.46 11.78 A 4.33 4.33 0 0 0 39.564 11.645 A 3.583 3.583 0 0 0 40.47 11.27 A 3.308 3.308 0 0 0 41.66 10.061 A 4.13 4.13 0 0 0 41.82 9.76 L 45.04 9.76 A 6.592 6.592 0 0 1 43.9 11.892 A 6.087 6.087 0 0 1 42.59 13.09 A 6.88 6.88 0 0 1 39.361 14.237 A 8.719 8.719 0 0 1 38.48 14.28 Q 36.48 14.28 34.87 13.37 Q 33.26 12.46 32.33 10.84 A 7.037 7.037 0 0 1 31.433 7.917 A 8.616 8.616 0 0 1 31.4 7.16 A 7.816 7.816 0 0 1 31.719 4.894 A 6.854 6.854 0 0 1 32.33 3.47 Q 33.26 1.84 34.87 0.93 A 7.081 7.081 0 0 1 37.986 0.035 A 8.486 8.486 0 0 1 38.48 0.02 A 7.704 7.704 0 0 1 40.834 0.369 A 6.696 6.696 0 0 1 42.58 1.22 Q 44.34 2.42 45.04 4.54 Z M 19.54 10.14 L 22.54 10.14 A 2.362 2.362 0 0 0 22.662 10.757 A 1.781 1.781 0 0 0 23.15 11.5 Q 23.664 11.967 24.535 11.998 A 3.535 3.535 0 0 0 24.66 12 A 3.298 3.298 0 0 0 25.278 11.946 Q 25.632 11.878 25.911 11.727 A 1.744 1.744 0 0 0 26.2 11.53 Q 26.76 11.06 26.76 10.3 A 1.657 1.657 0 0 0 26.692 9.816 A 1.33 1.33 0 0 0 26.38 9.28 A 2.558 2.558 0 0 0 25.687 8.767 A 3.106 3.106 0 0 0 25.43 8.65 A 8.918 8.918 0 0 0 25.032 8.502 Q 24.548 8.333 23.86 8.14 A 24.87 24.87 0 0 1 22.985 7.867 Q 22.208 7.606 21.65 7.35 A 3.841 3.841 0 0 1 20.268 6.269 A 4.514 4.514 0 0 1 20.19 6.17 Q 19.58 5.38 19.58 4.06 A 4.179 4.179 0 0 1 19.74 2.883 A 3.509 3.509 0 0 1 20.2 1.9 A 3.835 3.835 0 0 1 21.586 0.663 A 4.759 4.759 0 0 1 21.94 0.49 A 5.771 5.771 0 0 1 23.465 0.069 A 7.505 7.505 0 0 1 24.5 0 A 7.256 7.256 0 0 1 26.006 0.148 Q 26.985 0.356 27.739 0.855 A 4.42 4.42 0 0 1 28.01 1.05 A 3.795 3.795 0 0 1 29.451 3.551 A 5.242 5.242 0 0 1 29.5 3.98 L 26.42 3.98 A 1.591 1.591 0 0 0 25.862 2.835 A 2.012 2.012 0 0 0 25.81 2.79 A 1.971 1.971 0 0 0 25.027 2.404 Q 24.697 2.32 24.3 2.32 Q 23.48 2.32 22.99 2.74 A 1.353 1.353 0 0 0 22.553 3.476 A 2.089 2.089 0 0 0 22.5 3.96 A 1.39 1.39 0 0 0 22.58 4.44 A 1.225 1.225 0 0 0 22.87 4.89 A 2.652 2.652 0 0 0 23.464 5.333 A 3.289 3.289 0 0 0 23.79 5.49 Q 24.287 5.698 25.151 5.963 A 32.865 32.865 0 0 0 25.34 6.02 Q 26.7 6.42 27.56 6.82 A 3.956 3.956 0 0 1 28.961 7.921 A 4.641 4.641 0 0 1 29.04 8.02 A 2.827 2.827 0 0 1 29.541 9.079 Q 29.643 9.485 29.658 9.962 A 5.262 5.262 0 0 1 29.66 10.12 Q 29.66 11.24 29.08 12.2 A 3.929 3.929 0 0 1 27.844 13.462 A 4.942 4.942 0 0 1 27.38 13.73 A 5.078 5.078 0 0 1 25.987 14.191 A 7.005 7.005 0 0 1 24.72 14.3 A 7.333 7.333 0 0 1 23.21 14.151 A 5.961 5.961 0 0 1 22.09 13.8 A 4.624 4.624 0 0 1 20.901 13.075 A 4.058 4.058 0 0 1 20.24 12.36 A 3.686 3.686 0 0 1 19.563 10.537 A 4.646 4.646 0 0 1 19.54 10.14 Z M 85.46 2.46 L 80.16 2.46 L 80.16 5.96 L 84.86 5.96 L 84.86 8.18 L 80.16 8.18 L 80.16 11.88 L 85.46 11.88 L 85.46 14.16 L 77.36 14.16 L 77.36 0.18 L 85.46 0.18 L 85.46 2.46 Z M 160.18 2.46 L 154.88 2.46 L 154.88 5.96 L 159.58 5.96 L 159.58 8.18 L 154.88 8.18 L 154.88 11.88 L 160.18 11.88 L 160.18 14.16 L 152.08 14.16 L 152.08 0.18 L 160.18 0.18 L 160.18 2.46 Z M 72.7 0.2 L 75.68 0.2 L 70.56 14.16 L 67.16 14.16 L 62.04 0.2 L 65.04 0.2 L 68.88 11.3 L 72.7 0.2 Z M 98.44 14.16 L 95.2 14.16 L 92.12 8.72 L 90.8 8.72 L 90.8 14.16 L 88 14.16 L 88 0.2 L 93.24 0.2 A 7.716 7.716 0 0 1 94.477 0.294 Q 95.188 0.41 95.779 0.667 A 4.578 4.578 0 0 1 96 0.77 A 4.464 4.464 0 0 1 96.994 1.437 A 3.664 3.664 0 0 1 97.71 2.31 A 4.169 4.169 0 0 1 98.278 4.331 A 4.964 4.964 0 0 1 98.28 4.48 Q 98.28 5.86 97.48 6.97 A 3.755 3.755 0 0 1 96.032 8.16 A 5.249 5.249 0 0 1 95.1 8.5 L 98.44 14.16 Z M 149.7 14.16 L 146.46 14.16 L 143.38 8.72 L 142.06 8.72 L 142.06 14.16 L 139.26 14.16 L 139.26 0.2 L 144.5 0.2 A 7.716 7.716 0 0 1 145.737 0.294 Q 146.448 0.41 147.039 0.667 A 4.578 4.578 0 0 1 147.26 0.77 A 4.464 4.464 0 0 1 148.254 1.437 A 3.664 3.664 0 0 1 148.97 2.31 A 4.169 4.169 0 0 1 149.538 4.331 A 4.964 4.964 0 0 1 149.54 4.48 Q 149.54 5.86 148.74 6.97 A 3.755 3.755 0 0 1 147.292 8.16 A 5.249 5.249 0 0 1 146.36 8.5 L 149.7 14.16 Z M 4.88 14.16 L 0 14.16 L 0 0.2 L 4.88 0.2 A 9.539 9.539 0 0 1 6.917 0.409 A 7.457 7.457 0 0 1 8.75 1.06 Q 10.42 1.92 11.33 3.51 Q 12.24 5.1 12.24 7.2 Q 12.24 9.3 11.33 10.87 Q 10.42 12.44 8.75 13.3 A 7.675 7.675 0 0 1 6.334 14.058 A 9.994 9.994 0 0 1 4.88 14.16 Z M 53.92 14.3 Q 51.96 14.3 50.32 13.38 Q 48.68 12.46 47.72 10.83 A 6.99 6.99 0 0 1 46.777 7.68 A 8.493 8.493 0 0 1 46.76 7.14 Q 46.76 5.812 47.167 4.657 A 6.77 6.77 0 0 1 47.72 3.47 Q 48.68 1.84 50.32 0.92 Q 51.96 0 53.92 0 A 7.356 7.356 0 0 1 56.747 0.54 A 7.048 7.048 0 0 1 57.53 0.92 Q 59.16 1.84 60.11 3.47 A 7.041 7.041 0 0 1 61.049 6.699 A 8.485 8.485 0 0 1 61.06 7.14 A 7.651 7.651 0 0 1 60.725 9.435 A 6.778 6.778 0 0 1 60.11 10.83 Q 59.16 12.46 57.52 13.38 Q 55.88 14.3 53.92 14.3 Z M 130.04 14.3 Q 128.08 14.3 126.44 13.38 Q 124.8 12.46 123.84 10.83 A 6.99 6.99 0 0 1 122.897 7.68 A 8.493 8.493 0 0 1 122.88 7.14 Q 122.88 5.812 123.287 4.657 A 6.77 6.77 0 0 1 123.84 3.47 Q 124.8 1.84 126.44 0.92 Q 128.08 0 130.04 0 A 7.356 7.356 0 0 1 132.867 0.54 A 7.048 7.048 0 0 1 133.65 0.92 Q 135.28 1.84 136.23 3.47 A 7.041 7.041 0 0 1 137.169 6.699 A 8.485 8.485 0 0 1 137.18 7.14 A 7.651 7.651 0 0 1 136.845 9.435 A 6.778 6.778 0 0 1 136.23 10.83 Q 135.28 12.46 133.64 13.38 Q 132 14.3 130.04 14.3 Z M 14.34 0.2 L 17.14 0.2 L 17.14 14.16 L 14.34 14.16 L 14.34 0.2 Z M 53.92 11.8 Q 55.18 11.8 56.14 11.23 A 3.875 3.875 0 0 0 57.571 9.731 A 4.655 4.655 0 0 0 57.64 9.6 A 4.895 4.895 0 0 0 58.11 8.103 A 6.406 6.406 0 0 0 58.18 7.14 A 6.152 6.152 0 0 0 58.061 5.905 A 4.705 4.705 0 0 0 57.64 4.69 A 3.987 3.987 0 0 0 56.731 3.506 A 3.753 3.753 0 0 0 56.14 3.08 A 4.11 4.11 0 0 0 54.541 2.556 A 5.201 5.201 0 0 0 53.92 2.52 A 4.822 4.822 0 0 0 52.663 2.678 A 4.032 4.032 0 0 0 51.69 3.08 A 3.828 3.828 0 0 0 50.197 4.658 A 4.581 4.581 0 0 0 50.18 4.69 A 4.801 4.801 0 0 0 49.716 6.14 A 6.347 6.347 0 0 0 49.64 7.14 Q 49.64 8.54 50.18 9.6 A 3.996 3.996 0 0 0 51.139 10.837 A 3.812 3.812 0 0 0 51.69 11.23 A 4.146 4.146 0 0 0 53.38 11.773 A 5.181 5.181 0 0 0 53.92 11.8 Z M 130.04 11.8 Q 131.3 11.8 132.26 11.23 A 3.875 3.875 0 0 0 133.691 9.731 A 4.655 4.655 0 0 0 133.76 9.6 A 4.895 4.895 0 0 0 134.23 8.103 A 6.406 6.406 0 0 0 134.3 7.14 A 6.152 6.152 0 0 0 134.181 5.905 A 4.705 4.705 0 0 0 133.76 4.69 A 3.987 3.987 0 0 0 132.851 3.506 A 3.753 3.753 0 0 0 132.26 3.08 A 4.11 4.11 0 0 0 130.661 2.556 A 5.201 5.201 0 0 0 130.04 2.52 A 4.822 4.822 0 0 0 128.783 2.678 A 4.032 4.032 0 0 0 127.81 3.08 A 3.828 3.828 0 0 0 126.317 4.658 A 4.581 4.581 0 0 0 126.3 4.69 A 4.801 4.801 0 0 0 125.836 6.14 A 6.347 6.347 0 0 0 125.76 7.14 Q 125.76 8.54 126.3 9.6 A 3.996 3.996 0 0 0 127.259 10.837 A 3.812 3.812 0 0 0 127.81 11.23 A 4.146 4.146 0 0 0 129.5 11.773 A 5.181 5.181 0 0 0 130.04 11.8 Z M 4.78 2.56 L 2.8 2.56 L 2.8 11.78 L 4.78 11.78 Q 6.98 11.78 8.18 10.58 Q 9.32 9.44 9.377 7.415 A 7.661 7.661 0 0 0 9.38 7.2 A 6.381 6.381 0 0 0 9.238 5.814 Q 9.027 4.866 8.502 4.167 A 3.83 3.83 0 0 0 8.18 3.79 A 3.902 3.902 0 0 0 6.346 2.748 Q 5.728 2.584 4.992 2.563 A 7.614 7.614 0 0 0 4.78 2.56 Z M 90.8 2.52 L 90.8 6.62 L 93.14 6.62 A 3.769 3.769 0 0 0 93.766 6.572 Q 94.446 6.457 94.84 6.07 Q 95.394 5.527 95.4 4.562 A 3.397 3.397 0 0 0 95.4 4.54 A 2.64 2.64 0 0 0 95.334 3.931 A 1.731 1.731 0 0 0 94.84 3.05 A 1.737 1.737 0 0 0 94.213 2.679 Q 93.763 2.52 93.14 2.52 L 90.8 2.52 Z M 142.06 2.52 L 142.06 6.62 L 144.4 6.62 A 3.769 3.769 0 0 0 145.026 6.572 Q 145.706 6.457 146.1 6.07 Q 146.654 5.527 146.66 4.562 A 3.397 3.397 0 0 0 146.66 4.54 A 2.64 2.64 0 0 0 146.594 3.931 A 1.731 1.731 0 0 0 146.1 3.05 A 1.737 1.737 0 0 0 145.473 2.679 Q 145.023 2.52 144.4 2.52 L 142.06 2.52 Z" vector-effect="non-scaling-stroke"/></g></svg>