<svg width="96.74" height="14.12" viewBox="0 0 96.74 14.12" xmlns="http://www.w3.org/2000/svg"><g id="svgGroup" stroke-linecap="round" fill-rule="evenodd" font-size="9pt" stroke="#000" stroke-width="0" fill="#424144" style="stroke:#000;stroke-width:0;fill:#424144"><path d="M 47.06 0.02 L 49.86 0.02 L 49.86 8.66 A 4.362 4.362 0 0 0 49.936 9.501 Q 50.097 10.32 50.6 10.83 A 2.418 2.418 0 0 0 51.742 11.47 Q 52.127 11.57 52.585 11.579 A 4.675 4.675 0 0 0 52.68 11.58 A 3.968 3.968 0 0 0 53.506 11.499 Q 54.04 11.386 54.442 11.112 A 2.264 2.264 0 0 0 54.78 10.83 A 2.411 2.411 0 0 0 55.367 9.814 Q 55.52 9.306 55.52 8.66 L 55.52 0.02 L 58.34 0.02 L 58.34 8.64 A 6.876 6.876 0 0 1 58.213 9.995 A 4.911 4.911 0 0 1 57.57 11.65 Q 56.8 12.88 55.51 13.5 A 6.33 6.33 0 0 1 53.27 14.094 A 7.632 7.632 0 0 1 52.64 14.12 A 6.781 6.781 0 0 1 50.846 13.89 A 5.901 5.901 0 0 1 49.81 13.5 Q 48.54 12.88 47.8 11.65 A 4.988 4.988 0 0 1 47.202 10.092 Q 47.069 9.461 47.061 8.737 A 8.457 8.457 0 0 1 47.06 8.64 L 47.06 0.02 Z M 18.7 2.28 L 13.4 2.28 L 13.4 5.78 L 18.1 5.78 L 18.1 8 L 13.4 8 L 13.4 11.7 L 18.7 11.7 L 18.7 13.98 L 10.6 13.98 L 10.6 0 L 18.7 0 L 18.7 2.28 Z M 81.96 2.28 L 76.66 2.28 L 76.66 5.78 L 81.36 5.78 L 81.36 8 L 76.66 8 L 76.66 11.7 L 81.96 11.7 L 81.96 13.98 L 73.86 13.98 L 73.86 0 L 81.96 0 L 81.96 2.28 Z M 71.48 13.98 L 68.24 13.98 L 65.16 8.54 L 63.84 8.54 L 63.84 13.98 L 61.04 13.98 L 61.04 0.02 L 66.28 0.02 A 7.716 7.716 0 0 1 67.517 0.114 Q 68.228 0.23 68.819 0.487 A 4.578 4.578 0 0 1 69.04 0.59 A 4.464 4.464 0 0 1 70.034 1.257 A 3.664 3.664 0 0 1 70.75 2.13 A 4.169 4.169 0 0 1 71.318 4.151 A 4.964 4.964 0 0 1 71.32 4.3 Q 71.32 5.68 70.52 6.79 A 3.755 3.755 0 0 1 69.072 7.98 A 5.249 5.249 0 0 1 68.14 8.32 L 71.48 13.98 Z M 0 0.02 L 8.62 0.02 L 8.62 2.28 L 2.8 2.28 L 2.8 5.86 L 7.26 5.86 L 7.26 8.08 L 2.8 8.08 L 2.8 13.98 L 0 13.98 L 0 0.02 Z M 30.72 13.98 L 29.8 11.32 L 24.24 11.32 L 23.32 13.98 L 20.38 13.98 L 25.4 0 L 28.66 0 L 33.68 13.98 L 30.72 13.98 Z M 34.82 0.02 L 45.06 0.02 L 45.06 2.28 L 41.34 2.28 L 41.34 13.98 L 38.54 13.98 L 38.54 2.28 L 34.82 2.28 L 34.82 0.02 Z M 89.38 13.98 L 84.5 13.98 L 84.5 0.02 L 89.38 0.02 A 9.539 9.539 0 0 1 91.417 0.228 A 7.457 7.457 0 0 1 93.25 0.88 Q 94.92 1.74 95.83 3.33 Q 96.74 4.92 96.74 7.02 Q 96.74 9.12 95.83 10.69 Q 94.92 12.26 93.25 13.12 A 7.675 7.675 0 0 1 90.834 13.878 A 9.994 9.994 0 0 1 89.38 13.98 Z M 89.28 2.38 L 87.3 2.38 L 87.3 11.6 L 89.28 11.6 Q 91.48 11.6 92.68 10.4 Q 93.82 9.26 93.877 7.235 A 7.661 7.661 0 0 0 93.88 7.02 A 6.381 6.381 0 0 0 93.738 5.634 Q 93.527 4.686 93.002 3.986 A 3.83 3.83 0 0 0 92.68 3.61 A 3.902 3.902 0 0 0 90.846 2.568 Q 90.228 2.403 89.492 2.383 A 7.614 7.614 0 0 0 89.28 2.38 Z M 25 9.08 L 29.04 9.08 L 27.02 3.24 L 25 9.08 Z M 63.84 2.34 L 63.84 6.44 L 66.18 6.44 A 3.769 3.769 0 0 0 66.806 6.392 Q 67.486 6.277 67.88 5.89 Q 68.434 5.346 68.44 4.382 A 3.397 3.397 0 0 0 68.44 4.36 A 2.64 2.64 0 0 0 68.374 3.751 A 1.731 1.731 0 0 0 67.88 2.87 A 1.737 1.737 0 0 0 67.253 2.499 Q 66.803 2.34 66.18 2.34 L 63.84 2.34 Z"/></g></svg>