<svg height="18" viewBox="0 0 199.025 18" preserveAspectRatio="xMinYMin meet" xmlns="http://www.w3.org/2000/svg"><g id="svgGroup" stroke-linecap="round" fill-rule="evenodd" font-size="9pt" stroke="#000" stroke-width="0" fill="#424144" style="stroke:#000;stroke-width:0;fill:#424144"><path d="M 143.6 0.2 L 143.6 17.6 L 140.75 17.6 L 132.175 4.625 L 132.175 17.6 L 129.325 17.6 L 129.325 0.2 L 132.175 0.2 L 140.75 13.15 L 140.75 0.2 L 143.6 0.2 Z M 103.125 0.225 L 105.975 0.225 L 105.975 17.6 L 103.125 17.6 L 103.125 10 L 94.95 10 L 94.95 17.6 L 92.1 17.6 L 92.1 0.225 L 94.95 0.225 L 94.95 7.675 L 103.125 7.675 L 103.125 0.225 Z M 89.575 17.6 L 85.85 17.6 L 79.125 9.825 L 79.125 17.6 L 76.275 17.6 L 76.275 0.225 L 79.125 0.225 L 79.125 8.15 L 85.875 0.225 L 89.45 0.225 L 81.9 8.925 L 89.575 17.6 Z M 28.525 2.45 L 20.45 15.125 L 28.525 15.125 L 28.525 17.6 L 17.075 17.6 L 17.075 15.375 L 25.125 2.7 L 17.075 2.7 L 17.075 0.225 L 28.525 0.225 L 28.525 2.45 Z M 178.925 0.225 L 181.925 0.225 L 175.4 17.6 L 172.1 17.6 L 165.55 0.225 L 168.6 0.225 L 173.75 14.675 L 178.925 0.225 Z M 43.375 17.6 L 42.125 14.05 L 34.85 14.05 L 33.6 17.6 L 30.625 17.6 L 36.85 0.2 L 40.15 0.2 L 46.375 17.6 L 43.375 17.6 Z M 196.025 17.6 L 194.775 14.05 L 187.5 14.05 L 186.25 17.6 L 183.275 17.6 L 189.5 0.2 L 192.8 0.2 L 199.025 17.6 L 196.025 17.6 Z M 54.675 0.225 L 66.8 0.225 L 66.8 2.55 L 62.175 2.55 L 62.175 17.6 L 59.325 17.6 L 59.325 2.55 L 54.675 2.55 L 54.675 0.225 Z M 117.65 17.775 Q 115.225 17.775 113.188 16.638 Q 111.15 15.5 109.963 13.463 A 8.802 8.802 0 0 1 108.789 9.427 A 10.606 10.606 0 0 1 108.775 8.875 A 9.383 9.383 0 0 1 109.216 5.963 A 8.404 8.404 0 0 1 109.962 4.3 Q 111.15 2.275 113.188 1.138 Q 115.225 0 117.65 0 Q 120.1 0 122.138 1.138 Q 124.175 2.275 125.35 4.3 A 8.759 8.759 0 0 1 126.502 8.169 A 10.614 10.614 0 0 1 126.525 8.875 Q 126.525 11.425 125.35 13.463 Q 124.175 15.5 122.138 16.638 Q 120.1 17.775 117.65 17.775 Z M 155.275 17.775 Q 152.85 17.775 150.813 16.638 Q 148.775 15.5 147.588 13.463 A 8.802 8.802 0 0 1 146.414 9.427 A 10.606 10.606 0 0 1 146.4 8.875 A 9.383 9.383 0 0 1 146.841 5.963 A 8.404 8.404 0 0 1 147.587 4.3 Q 148.775 2.275 150.813 1.138 Q 152.85 0 155.275 0 Q 157.725 0 159.763 1.138 Q 161.8 2.275 162.975 4.3 A 8.759 8.759 0 0 1 164.127 8.169 A 10.614 10.614 0 0 1 164.15 8.875 Q 164.15 11.425 162.975 13.463 Q 161.8 15.5 159.763 16.638 Q 157.725 17.775 155.275 17.775 Z M 2.85 0.225 L 2.85 15.3 L 8.725 15.3 L 8.725 17.6 L 0 17.6 L 0 0.225 L 2.85 0.225 Z M 11.1 0.225 L 13.95 0.225 L 13.95 17.6 L 11.1 17.6 L 11.1 0.225 Z M 69.675 0.225 L 72.525 0.225 L 72.525 17.6 L 69.675 17.6 L 69.675 0.225 Z M 117.65 15.3 A 6.46 6.46 0 0 0 119.472 15.051 A 5.595 5.595 0 0 0 120.725 14.513 A 5.449 5.449 0 0 0 122.814 12.309 A 6.508 6.508 0 0 0 122.838 12.263 A 6.663 6.663 0 0 0 123.51 10.144 A 8.638 8.638 0 0 0 123.6 8.875 A 8.224 8.224 0 0 0 123.421 7.122 A 6.388 6.388 0 0 0 122.837 5.5 A 5.506 5.506 0 0 0 121.401 3.735 A 5.332 5.332 0 0 0 120.725 3.275 A 5.868 5.868 0 0 0 118.297 2.529 A 7.233 7.233 0 0 0 117.65 2.5 A 6.557 6.557 0 0 0 115.828 2.746 A 5.643 5.643 0 0 0 114.575 3.275 A 5.389 5.389 0 0 0 112.474 5.478 A 6.404 6.404 0 0 0 112.462 5.5 A 6.559 6.559 0 0 0 111.794 7.581 A 8.586 8.586 0 0 0 111.7 8.875 A 8.245 8.245 0 0 0 111.885 10.658 A 6.479 6.479 0 0 0 112.462 12.263 A 5.59 5.59 0 0 0 113.862 14.017 A 5.37 5.37 0 0 0 114.575 14.513 A 5.805 5.805 0 0 0 117.016 15.273 A 7.128 7.128 0 0 0 117.65 15.3 Z M 155.275 15.3 A 6.46 6.46 0 0 0 157.097 15.051 A 5.595 5.595 0 0 0 158.35 14.513 A 5.449 5.449 0 0 0 160.439 12.309 A 6.508 6.508 0 0 0 160.463 12.263 A 6.663 6.663 0 0 0 161.135 10.144 A 8.638 8.638 0 0 0 161.225 8.875 A 8.224 8.224 0 0 0 161.046 7.122 A 6.388 6.388 0 0 0 160.462 5.5 A 5.506 5.506 0 0 0 159.026 3.735 A 5.332 5.332 0 0 0 158.35 3.275 A 5.868 5.868 0 0 0 155.922 2.529 A 7.233 7.233 0 0 0 155.275 2.5 A 6.557 6.557 0 0 0 153.453 2.746 A 5.643 5.643 0 0 0 152.2 3.275 A 5.389 5.389 0 0 0 150.099 5.478 A 6.404 6.404 0 0 0 150.087 5.5 A 6.559 6.559 0 0 0 149.419 7.581 A 8.586 8.586 0 0 0 149.325 8.875 A 8.245 8.245 0 0 0 149.51 10.658 A 6.479 6.479 0 0 0 150.087 12.263 A 5.59 5.59 0 0 0 151.487 14.017 A 5.37 5.37 0 0 0 152.2 14.513 A 5.805 5.805 0 0 0 154.641 15.273 A 7.128 7.128 0 0 0 155.275 15.3 Z M 35.65 11.725 L 41.325 11.725 L 38.5 3.65 L 35.65 11.725 Z M 188.3 11.725 L 193.975 11.725 L 191.15 3.65 L 188.3 11.725 Z"/></g></svg>