<svg width="203.5" height="17.876" preserveAspectRatio="xMinYMin meet" viewBox="0 0 203.5 17.876" xmlns="http://www.w3.org/2000/svg"><g id="svgGroup" stroke-linecap="round" fill-rule="evenodd" font-size="9pt" fill="#424144" style="fill:#424144"><path d="M 147.1 0.225 L 147.1 17.7 L 143.6 17.7 L 135.675 5.725 L 135.675 17.7 L 132.175 17.7 L 132.175 0.225 L 135.675 0.225 L 143.6 12.225 L 143.6 0.225 L 147.1 0.225 Z M 105.6 0.25 L 109.1 0.25 L 109.1 17.7 L 105.6 17.7 L 105.6 10.275 L 98.125 10.275 L 98.125 17.7 L 94.625 17.7 L 94.625 0.25 L 98.125 0.25 L 98.125 7.425 L 105.6 7.425 L 105.6 0.25 Z M 92.325 17.7 L 87.9 17.7 L 81.55 9.925 L 81.55 17.7 L 78.05 17.7 L 78.05 0.25 L 81.55 0.25 L 81.55 8.075 L 87.9 0.25 L 92.125 0.25 L 84.925 8.9 L 92.325 17.7 Z M 29.85 2.95 L 22 14.75 L 29.85 14.75 L 29.85 17.7 L 17.95 17.7 L 17.95 15 L 25.75 3.2 L 17.95 3.2 L 17.95 0.25 L 29.85 0.25 L 29.85 2.95 Z M 182.125 0.25 L 185.85 0.25 L 179.45 17.7 L 175.2 17.7 L 168.8 0.25 L 172.55 0.25 L 177.35 14.125 L 182.125 0.25 Z M 44.675 17.7 L 43.525 14.375 L 36.575 14.375 L 35.425 17.7 L 31.75 17.7 L 38.025 0.225 L 42.1 0.225 L 48.375 17.7 L 44.675 17.7 Z M 199.8 17.7 L 198.65 14.375 L 191.7 14.375 L 190.55 17.7 L 186.875 17.7 L 193.15 0.225 L 197.225 0.225 L 203.5 17.7 L 199.8 17.7 Z M 55.75 0.25 L 68.55 0.25 L 68.55 3.075 L 63.9 3.075 L 63.9 17.7 L 60.4 17.7 L 60.4 3.075 L 55.75 3.075 L 55.75 0.25 Z M 120.65 17.875 Q 118.2 17.875 116.15 16.725 Q 114.1 15.575 112.9 13.538 Q 111.7 11.5 111.7 8.925 A 9.298 9.298 0 0 1 112.181 5.903 A 8.46 8.46 0 0 1 112.9 4.338 Q 114.1 2.3 116.15 1.15 Q 118.2 0 120.65 0 A 9.195 9.195 0 0 1 124.183 0.675 A 8.81 8.81 0 0 1 125.162 1.15 Q 127.2 2.3 128.388 4.338 A 8.802 8.802 0 0 1 129.561 8.374 A 10.606 10.606 0 0 1 129.575 8.925 A 9.564 9.564 0 0 1 129.156 11.794 A 8.472 8.472 0 0 1 128.387 13.538 Q 127.2 15.575 125.15 16.725 Q 123.1 17.875 120.65 17.875 Z M 158.65 17.875 Q 156.2 17.875 154.15 16.725 Q 152.1 15.575 150.9 13.538 Q 149.7 11.5 149.7 8.925 A 9.298 9.298 0 0 1 150.181 5.903 A 8.46 8.46 0 0 1 150.9 4.338 Q 152.1 2.3 154.15 1.15 Q 156.2 0 158.65 0 A 9.195 9.195 0 0 1 162.183 0.675 A 8.81 8.81 0 0 1 163.162 1.15 Q 165.2 2.3 166.388 4.338 A 8.802 8.802 0 0 1 167.561 8.374 A 10.606 10.606 0 0 1 167.575 8.925 A 9.564 9.564 0 0 1 167.156 11.794 A 8.472 8.472 0 0 1 166.387 13.538 Q 165.2 15.575 163.15 16.725 Q 161.1 17.875 158.65 17.875 Z M 3.5 0.25 L 3.5 14.925 L 9.25 14.925 L 9.25 17.7 L 0 17.7 L 0 0.25 L 3.5 0.25 Z M 11.475 0.25 L 14.975 0.25 L 14.975 17.7 L 11.475 17.7 L 11.475 0.25 Z M 71.1 0.25 L 74.6 0.25 L 74.6 17.7 L 71.1 17.7 L 71.1 0.25 Z M 120.65 14.75 A 5.913 5.913 0 0 0 122.175 14.561 A 4.905 4.905 0 0 0 123.425 14.038 Q 124.625 13.325 125.3 12 A 6.118 6.118 0 0 0 125.888 10.128 A 8.008 8.008 0 0 0 125.975 8.925 A 7.69 7.69 0 0 0 125.827 7.381 A 5.881 5.881 0 0 0 125.3 5.863 A 4.984 4.984 0 0 0 124.164 4.383 A 4.691 4.691 0 0 0 123.425 3.85 A 5.137 5.137 0 0 0 121.426 3.196 A 6.501 6.501 0 0 0 120.65 3.15 Q 119.075 3.15 117.863 3.85 A 4.784 4.784 0 0 0 115.996 5.822 A 5.719 5.719 0 0 0 115.975 5.863 A 6.001 6.001 0 0 0 115.395 7.674 A 7.934 7.934 0 0 0 115.3 8.925 A 7.693 7.693 0 0 0 115.458 10.521 A 5.965 5.965 0 0 0 115.975 12 A 4.995 4.995 0 0 0 117.174 13.547 A 4.765 4.765 0 0 0 117.863 14.038 A 5.183 5.183 0 0 0 119.975 14.716 A 6.477 6.477 0 0 0 120.65 14.75 Z M 158.65 14.75 A 5.913 5.913 0 0 0 160.175 14.561 A 4.905 4.905 0 0 0 161.425 14.038 Q 162.625 13.325 163.3 12 A 6.118 6.118 0 0 0 163.888 10.128 A 8.008 8.008 0 0 0 163.975 8.925 A 7.69 7.69 0 0 0 163.827 7.381 A 5.881 5.881 0 0 0 163.3 5.863 A 4.984 4.984 0 0 0 162.164 4.383 A 4.691 4.691 0 0 0 161.425 3.85 A 5.137 5.137 0 0 0 159.426 3.196 A 6.501 6.501 0 0 0 158.65 3.15 Q 157.075 3.15 155.863 3.85 A 4.784 4.784 0 0 0 153.996 5.822 A 5.719 5.719 0 0 0 153.975 5.863 A 6.001 6.001 0 0 0 153.395 7.674 A 7.934 7.934 0 0 0 153.3 8.925 A 7.693 7.693 0 0 0 153.458 10.521 A 5.965 5.965 0 0 0 153.975 12 A 4.995 4.995 0 0 0 155.174 13.547 A 4.765 4.765 0 0 0 155.863 14.038 A 5.183 5.183 0 0 0 157.975 14.716 A 6.477 6.477 0 0 0 158.65 14.75 Z M 37.525 11.575 L 42.575 11.575 L 40.05 4.275 L 37.525 11.575 Z M 192.65 11.575 L 197.7 11.575 L 195.175 4.275 L 192.65 11.575 Z" vector-effect="non-scaling-stroke"/></g></svg>