<svg width="64.12" height="14.3" viewBox="0 0 64.12 14.3" xmlns="http://www.w3.org/2000/svg"><g id="svgGroup" stroke-linecap="round" fill-rule="evenodd" font-size="9pt" stroke="#000" stroke-width="0" fill="#424144" style="stroke:#000;stroke-width:0;fill:#424144"><path d="M 41.32 4.54 L 38.1 4.54 A 3.652 3.652 0 0 0 37.491 3.63 A 3.132 3.132 0 0 0 36.75 3.04 A 3.754 3.754 0 0 0 35.327 2.575 A 4.752 4.752 0 0 0 34.74 2.54 A 4.456 4.456 0 0 0 33.453 2.721 A 3.874 3.874 0 0 0 32.57 3.11 A 3.883 3.883 0 0 0 31.107 4.688 A 4.608 4.608 0 0 0 31.09 4.72 A 4.752 4.752 0 0 0 30.647 6.082 A 6.367 6.367 0 0 0 30.56 7.16 Q 30.56 8.54 31.09 9.59 Q 31.62 10.64 32.57 11.21 Q 33.52 11.78 34.74 11.78 A 4.33 4.33 0 0 0 35.844 11.645 A 3.583 3.583 0 0 0 36.75 11.27 A 3.308 3.308 0 0 0 37.94 10.061 A 4.13 4.13 0 0 0 38.1 9.76 L 41.32 9.76 A 6.592 6.592 0 0 1 40.18 11.892 A 6.087 6.087 0 0 1 38.87 13.09 A 6.88 6.88 0 0 1 35.641 14.237 A 8.719 8.719 0 0 1 34.76 14.28 Q 32.76 14.28 31.15 13.37 Q 29.54 12.46 28.61 10.84 A 7.037 7.037 0 0 1 27.713 7.917 A 8.616 8.616 0 0 1 27.68 7.16 A 7.816 7.816 0 0 1 27.999 4.894 A 6.854 6.854 0 0 1 28.61 3.47 Q 29.54 1.84 31.15 0.93 A 7.081 7.081 0 0 1 34.266 0.034 A 8.486 8.486 0 0 1 34.76 0.02 A 7.704 7.704 0 0 1 37.114 0.369 A 6.696 6.696 0 0 1 38.86 1.22 Q 40.62 2.42 41.32 4.54 Z M 54 10.14 L 57 10.14 A 2.362 2.362 0 0 0 57.122 10.757 A 1.781 1.781 0 0 0 57.61 11.5 Q 58.124 11.967 58.995 11.998 A 3.535 3.535 0 0 0 59.12 12 A 3.298 3.298 0 0 0 59.738 11.946 Q 60.092 11.878 60.371 11.727 A 1.744 1.744 0 0 0 60.66 11.53 Q 61.22 11.06 61.22 10.3 A 1.657 1.657 0 0 0 61.152 9.816 A 1.33 1.33 0 0 0 60.84 9.28 A 2.558 2.558 0 0 0 60.147 8.767 A 3.106 3.106 0 0 0 59.89 8.65 A 8.918 8.918 0 0 0 59.492 8.502 Q 59.008 8.333 58.32 8.14 A 24.87 24.87 0 0 1 57.445 7.866 Q 56.668 7.606 56.11 7.35 A 3.841 3.841 0 0 1 54.728 6.269 A 4.514 4.514 0 0 1 54.65 6.17 Q 54.04 5.38 54.04 4.06 A 4.179 4.179 0 0 1 54.2 2.883 A 3.509 3.509 0 0 1 54.66 1.9 A 3.835 3.835 0 0 1 56.046 0.663 A 4.759 4.759 0 0 1 56.4 0.49 A 5.771 5.771 0 0 1 57.925 0.069 A 7.505 7.505 0 0 1 58.96 0 A 7.256 7.256 0 0 1 60.466 0.148 Q 61.445 0.355 62.199 0.855 A 4.42 4.42 0 0 1 62.47 1.05 A 3.795 3.795 0 0 1 63.911 3.551 A 5.242 5.242 0 0 1 63.96 3.98 L 60.88 3.98 A 1.591 1.591 0 0 0 60.322 2.835 A 2.012 2.012 0 0 0 60.27 2.79 A 1.971 1.971 0 0 0 59.487 2.404 Q 59.157 2.32 58.76 2.32 Q 57.94 2.32 57.45 2.74 A 1.353 1.353 0 0 0 57.013 3.476 A 2.089 2.089 0 0 0 56.96 3.96 A 1.39 1.39 0 0 0 57.04 4.44 A 1.225 1.225 0 0 0 57.33 4.89 A 2.652 2.652 0 0 0 57.924 5.333 A 3.289 3.289 0 0 0 58.25 5.49 Q 58.747 5.698 59.611 5.963 A 32.865 32.865 0 0 0 59.8 6.02 Q 61.16 6.42 62.02 6.82 A 3.956 3.956 0 0 1 63.421 7.921 A 4.641 4.641 0 0 1 63.5 8.02 A 2.827 2.827 0 0 1 64.001 9.078 Q 64.103 9.485 64.118 9.962 A 5.262 5.262 0 0 1 64.12 10.12 Q 64.12 11.24 63.54 12.2 A 3.929 3.929 0 0 1 62.304 13.462 A 4.942 4.942 0 0 1 61.84 13.73 A 5.078 5.078 0 0 1 60.447 14.191 A 7.005 7.005 0 0 1 59.18 14.3 A 7.333 7.333 0 0 1 57.67 14.151 A 5.961 5.961 0 0 1 56.55 13.8 A 4.624 4.624 0 0 1 55.361 13.075 A 4.058 4.058 0 0 1 54.7 12.36 A 3.686 3.686 0 0 1 54.023 10.537 A 4.646 4.646 0 0 1 54 10.14 Z M 25.82 2.46 L 20.52 2.46 L 20.52 5.96 L 25.22 5.96 L 25.22 8.18 L 20.52 8.18 L 20.52 11.88 L 25.82 11.88 L 25.82 14.16 L 17.72 14.16 L 17.72 0.18 L 25.82 0.18 L 25.82 2.46 Z M 51.82 2.46 L 46.52 2.46 L 46.52 5.96 L 51.22 5.96 L 51.22 8.18 L 46.52 8.18 L 46.52 11.88 L 51.82 11.88 L 51.82 14.16 L 43.72 14.16 L 43.72 0.18 L 51.82 0.18 L 51.82 2.46 Z M 5.14 8.8 L 2.8 8.8 L 2.8 14.16 L 0 14.16 L 0 0.2 L 5.14 0.2 A 7.851 7.851 0 0 1 6.377 0.293 Q 7.223 0.428 7.9 0.76 A 4.327 4.327 0 0 1 8.911 1.437 A 3.621 3.621 0 0 1 9.61 2.3 Q 10.18 3.28 10.18 4.52 Q 10.18 5.64 9.65 6.62 A 3.667 3.667 0 0 1 8.556 7.849 A 4.775 4.775 0 0 1 7.99 8.2 A 4.773 4.773 0 0 1 6.801 8.631 Q 6.252 8.755 5.614 8.788 A 9.172 9.172 0 0 1 5.14 8.8 Z M 12.16 0.2 L 14.96 0.2 L 14.96 14.16 L 12.16 14.16 L 12.16 0.2 Z M 5.02 2.48 L 2.8 2.48 L 2.8 6.54 L 5.02 6.54 A 4.031 4.031 0 0 0 5.654 6.494 Q 5.984 6.441 6.246 6.329 A 1.664 1.664 0 0 0 6.74 6.01 A 1.731 1.731 0 0 0 7.234 5.129 A 2.64 2.64 0 0 0 7.3 4.52 A 2.605 2.605 0 0 0 7.175 3.676 Q 6.766 2.48 5.02 2.48 Z"/></g></svg>