<svg width="160" height="14.301" viewBox="0 0 160 14.301" xmlns="http://www.w3.org/2000/svg"><g id="svgGroup" stroke-linecap="round" fill-rule="evenodd" font-size="9pt" stroke="#000" stroke-width="0" fill="#424144" style="stroke:#000;stroke-width:0;fill:#424144"><path d="M 111 0.2 L 114.02 0.2 L 110.12 14.16 L 106.82 14.16 L 104.2 4.22 L 101.46 14.16 L 98.18 14.18 L 94.42 0.2 L 97.42 0.2 L 99.88 11.04 L 102.72 0.2 L 105.84 0.2 L 108.52 10.98 L 111 0.2 Z M 74.1 0.2 L 76.9 0.2 L 76.9 14.16 L 74.1 14.16 L 74.1 8.22 L 68.12 8.22 L 68.12 14.16 L 65.32 14.16 L 65.32 0.2 L 68.12 0.2 L 68.12 5.94 L 74.1 5.94 L 74.1 0.2 Z M 52.78 10.14 L 55.78 10.14 A 2.362 2.362 0 0 0 55.902 10.757 A 1.781 1.781 0 0 0 56.39 11.5 Q 56.904 11.967 57.775 11.998 A 3.535 3.535 0 0 0 57.9 12 A 3.298 3.298 0 0 0 58.518 11.946 Q 58.872 11.878 59.151 11.727 A 1.744 1.744 0 0 0 59.44 11.53 Q 60 11.06 60 10.3 A 1.657 1.657 0 0 0 59.932 9.816 A 1.33 1.33 0 0 0 59.62 9.28 A 2.558 2.558 0 0 0 58.927 8.767 A 3.106 3.106 0 0 0 58.67 8.65 A 8.918 8.918 0 0 0 58.272 8.502 Q 57.787 8.333 57.1 8.14 A 24.87 24.87 0 0 1 56.225 7.867 Q 55.448 7.606 54.89 7.35 A 3.841 3.841 0 0 1 53.508 6.269 A 4.514 4.514 0 0 1 53.43 6.17 Q 52.82 5.38 52.82 4.06 A 4.179 4.179 0 0 1 52.98 2.883 A 3.509 3.509 0 0 1 53.44 1.9 A 3.835 3.835 0 0 1 54.826 0.663 A 4.759 4.759 0 0 1 55.18 0.49 A 5.771 5.771 0 0 1 56.705 0.069 A 7.505 7.505 0 0 1 57.74 0 A 7.256 7.256 0 0 1 59.246 0.148 Q 60.225 0.356 60.979 0.855 A 4.42 4.42 0 0 1 61.25 1.05 A 3.795 3.795 0 0 1 62.691 3.551 A 5.242 5.242 0 0 1 62.74 3.98 L 59.66 3.98 A 1.591 1.591 0 0 0 59.102 2.835 A 2.012 2.012 0 0 0 59.05 2.79 A 1.971 1.971 0 0 0 58.267 2.404 Q 57.937 2.32 57.54 2.32 Q 56.72 2.32 56.23 2.74 A 1.353 1.353 0 0 0 55.793 3.476 A 2.089 2.089 0 0 0 55.74 3.96 A 1.39 1.39 0 0 0 55.82 4.44 A 1.225 1.225 0 0 0 56.11 4.89 A 2.652 2.652 0 0 0 56.704 5.333 A 3.289 3.289 0 0 0 57.03 5.49 Q 57.527 5.698 58.391 5.963 A 32.865 32.865 0 0 0 58.58 6.02 Q 59.94 6.42 60.8 6.82 A 3.956 3.956 0 0 1 62.201 7.921 A 4.641 4.641 0 0 1 62.28 8.02 A 2.827 2.827 0 0 1 62.781 9.079 Q 62.883 9.485 62.898 9.962 A 5.262 5.262 0 0 1 62.9 10.12 Q 62.9 11.24 62.32 12.2 A 3.929 3.929 0 0 1 61.084 13.462 A 4.942 4.942 0 0 1 60.62 13.73 A 5.078 5.078 0 0 1 59.227 14.191 A 7.005 7.005 0 0 1 57.96 14.3 A 7.333 7.333 0 0 1 56.45 14.151 A 5.961 5.961 0 0 1 55.33 13.8 A 4.624 4.624 0 0 1 54.141 13.075 A 4.058 4.058 0 0 1 53.48 12.36 A 3.686 3.686 0 0 1 52.803 10.537 A 4.646 4.646 0 0 1 52.78 10.14 Z M 136.76 2.46 L 131.46 2.46 L 131.46 5.96 L 136.16 5.96 L 136.16 8.18 L 131.46 8.18 L 131.46 11.88 L 136.76 11.88 L 136.76 14.16 L 128.66 14.16 L 128.66 0.18 L 136.76 0.18 L 136.76 2.46 Z M 147.4 2.46 L 142.1 2.46 L 142.1 5.96 L 146.8 5.96 L 146.8 8.18 L 142.1 8.18 L 142.1 11.88 L 147.4 11.88 L 147.4 14.16 L 139.3 14.16 L 139.3 0.18 L 147.4 0.18 L 147.4 2.46 Z M 126.28 14.16 L 123.04 14.16 L 119.96 8.72 L 118.64 8.72 L 118.64 14.16 L 115.84 14.16 L 115.84 0.2 L 121.08 0.2 A 7.716 7.716 0 0 1 122.317 0.294 Q 123.028 0.41 123.619 0.667 A 4.578 4.578 0 0 1 123.84 0.77 A 4.464 4.464 0 0 1 124.834 1.437 A 3.664 3.664 0 0 1 125.55 2.31 A 4.169 4.169 0 0 1 126.118 4.331 A 4.964 4.964 0 0 1 126.12 4.48 Q 126.12 5.86 125.32 6.97 A 3.755 3.755 0 0 1 123.872 8.16 A 5.249 5.249 0 0 1 122.94 8.5 L 126.28 14.16 Z M 43.64 0.2 L 46.76 0.2 L 42.04 9.3 L 42.04 14.16 L 39.24 14.16 L 39.24 9.3 L 34.5 0.2 L 37.66 0.2 L 40.66 6.58 L 43.64 0.2 Z M 30.82 14.16 L 29.9 11.5 L 24.34 11.5 L 23.42 14.16 L 20.48 14.16 L 25.5 0.18 L 28.76 0.18 L 33.78 14.16 L 30.82 14.16 Z M 86.14 14.3 Q 84.18 14.3 82.54 13.38 Q 80.9 12.46 79.94 10.83 A 6.99 6.99 0 0 1 78.997 7.68 A 8.493 8.493 0 0 1 78.98 7.14 Q 78.98 5.812 79.387 4.657 A 6.77 6.77 0 0 1 79.94 3.47 Q 80.9 1.84 82.54 0.92 Q 84.18 0 86.14 0 A 7.356 7.356 0 0 1 88.967 0.54 A 7.048 7.048 0 0 1 89.75 0.92 Q 91.38 1.84 92.33 3.47 A 7.041 7.041 0 0 1 93.269 6.699 A 8.485 8.485 0 0 1 93.28 7.14 A 7.651 7.651 0 0 1 92.945 9.435 A 6.778 6.778 0 0 1 92.33 10.83 Q 91.38 12.46 89.74 13.38 Q 88.1 14.3 86.14 14.3 Z M 5.14 8.8 L 2.8 8.8 L 2.8 14.16 L 0 14.16 L 0 0.2 L 5.14 0.2 A 7.851 7.851 0 0 1 6.377 0.293 Q 7.223 0.428 7.9 0.76 A 4.327 4.327 0 0 1 8.911 1.437 A 3.621 3.621 0 0 1 9.61 2.3 Q 10.18 3.28 10.18 4.52 Q 10.18 5.64 9.65 6.62 A 3.667 3.667 0 0 1 8.556 7.849 A 4.775 4.775 0 0 1 7.99 8.2 A 4.773 4.773 0 0 1 6.801 8.631 Q 6.252 8.755 5.614 8.788 A 9.172 9.172 0 0 1 5.14 8.8 Z M 14.96 0.2 L 14.96 11.94 L 19.56 11.94 L 19.56 14.16 L 12.16 14.16 L 12.16 0.2 L 14.96 0.2 Z M 152.74 0.2 L 152.74 11.94 L 157.34 11.94 L 157.34 14.16 L 149.94 14.16 L 149.94 0.2 L 152.74 0.2 Z M 86.14 11.8 Q 87.4 11.8 88.36 11.23 A 3.875 3.875 0 0 0 89.791 9.731 A 4.655 4.655 0 0 0 89.86 9.6 A 4.895 4.895 0 0 0 90.33 8.103 A 6.406 6.406 0 0 0 90.4 7.14 A 6.152 6.152 0 0 0 90.281 5.905 A 4.705 4.705 0 0 0 89.86 4.69 A 3.987 3.987 0 0 0 88.951 3.506 A 3.753 3.753 0 0 0 88.36 3.08 A 4.11 4.11 0 0 0 86.761 2.556 A 5.201 5.201 0 0 0 86.14 2.52 A 4.822 4.822 0 0 0 84.883 2.678 A 4.032 4.032 0 0 0 83.91 3.08 A 3.828 3.828 0 0 0 82.417 4.658 A 4.581 4.581 0 0 0 82.4 4.69 A 4.801 4.801 0 0 0 81.936 6.14 A 6.347 6.347 0 0 0 81.86 7.14 Q 81.86 8.54 82.4 9.6 A 3.996 3.996 0 0 0 83.359 10.837 A 3.812 3.812 0 0 0 83.91 11.23 A 4.146 4.146 0 0 0 85.6 11.773 A 5.181 5.181 0 0 0 86.14 11.8 Z M 25.1 9.26 L 29.14 9.26 L 27.12 3.42 L 25.1 9.26 Z M 118.64 2.52 L 118.64 6.62 L 120.98 6.62 A 3.769 3.769 0 0 0 121.606 6.572 Q 122.286 6.457 122.68 6.07 Q 123.234 5.527 123.24 4.562 A 3.397 3.397 0 0 0 123.24 4.54 A 2.64 2.64 0 0 0 123.174 3.931 A 1.731 1.731 0 0 0 122.68 3.05 A 1.737 1.737 0 0 0 122.053 2.679 Q 121.603 2.52 120.98 2.52 L 118.64 2.52 Z M 5.02 2.48 L 2.8 2.48 L 2.8 6.54 L 5.02 6.54 A 4.031 4.031 0 0 0 5.654 6.494 Q 5.984 6.441 6.246 6.329 A 1.664 1.664 0 0 0 6.74 6.01 A 1.731 1.731 0 0 0 7.234 5.13 A 2.64 2.64 0 0 0 7.3 4.52 A 2.605 2.605 0 0 0 7.175 3.676 Q 6.766 2.48 5.02 2.48 Z"/></g></svg>