<svg width="130" height="14" viewBox="0 0 121 12" xmlns="http://www.w3.org/2000/svg"><g id="svgGroup" font-size="13pt"  fill="#424144" style="fill:#424144"><path d="M 10.777 0.13 L 12.74 0.13 L 10.205 9.204 L 8.06 9.204 L 6.357 2.743 L 4.576 9.204 L 2.444 9.217 L 0 0.13 L 1.95 0.13 L 3.549 7.176 L 5.395 0.13 L 7.423 0.13 L 9.165 7.137 L 10.777 0.13 Z M 90.74 0.13 L 92.703 0.13 L 90.168 9.204 L 88.023 9.204 L 86.32 2.743 L 84.539 9.204 L 82.407 9.217 L 79.963 0.13 L 81.913 0.13 L 83.512 7.176 L 85.358 0.13 L 87.386 0.13 L 89.128 7.137 L 90.74 0.13 Z M 46.423 0.13 L 48.243 0.13 L 48.243 9.204 L 46.423 9.204 L 46.423 5.343 L 42.536 5.343 L 42.536 9.204 L 40.716 9.204 L 40.716 0.13 L 42.536 0.13 L 42.536 3.861 L 46.423 3.861 L 46.423 0.13 Z M 66.755 0.13 L 68.575 0.13 L 68.575 9.204 L 66.755 9.204 L 66.755 5.343 L 62.868 5.343 L 62.868 9.204 L 61.048 9.204 L 61.048 0.13 L 62.868 0.13 L 62.868 3.861 L 66.755 3.861 L 66.755 0.13 Z M 39.156 2.951 L 37.063 2.951 A 2.374 2.374 0 0 0 36.667 2.36 A 2.036 2.036 0 0 0 36.186 1.976 A 2.44 2.44 0 0 0 35.26 1.674 A 3.089 3.089 0 0 0 34.879 1.651 A 2.896 2.896 0 0 0 34.042 1.768 A 2.518 2.518 0 0 0 33.469 2.022 A 2.524 2.524 0 0 0 32.517 3.047 A 2.999 2.999 0 0 0 32.507 3.068 A 3.089 3.089 0 0 0 32.219 3.953 A 4.138 4.138 0 0 0 32.162 4.654 A 3.962 3.962 0 0 0 32.245 5.485 A 3.089 3.089 0 0 0 32.507 6.234 A 2.604 2.604 0 0 0 33.093 7.01 A 2.454 2.454 0 0 0 33.469 7.287 A 2.612 2.612 0 0 0 34.612 7.646 A 3.214 3.214 0 0 0 34.879 7.657 A 2.814 2.814 0 0 0 35.596 7.569 A 2.329 2.329 0 0 0 36.185 7.326 A 2.15 2.15 0 0 0 36.959 6.54 A 2.685 2.685 0 0 0 37.063 6.344 L 39.156 6.344 A 4.285 4.285 0 0 1 38.415 7.73 A 3.956 3.956 0 0 1 37.563 8.509 A 4.472 4.472 0 0 1 35.465 9.254 A 5.668 5.668 0 0 1 34.892 9.282 A 4.924 4.924 0 0 1 33.366 9.051 A 4.449 4.449 0 0 1 32.546 8.691 Q 31.499 8.099 30.895 7.046 A 4.574 4.574 0 0 1 30.311 5.146 A 5.6 5.6 0 0 1 30.29 4.654 A 5.081 5.081 0 0 1 30.498 3.181 A 4.455 4.455 0 0 1 30.894 2.256 Q 31.499 1.196 32.546 0.605 A 4.603 4.603 0 0 1 34.571 0.022 A 5.516 5.516 0 0 1 34.892 0.013 A 5.007 5.007 0 0 1 36.422 0.24 A 4.352 4.352 0 0 1 37.557 0.793 Q 38.701 1.573 39.156 2.951 Z M 52.897 6.591 L 54.847 6.591 Q 54.886 7.15 55.244 7.475 A 1.192 1.192 0 0 0 55.746 7.742 Q 55.962 7.8 56.225 7.8 Q 56.711 7.8 57.038 7.622 A 1.134 1.134 0 0 0 57.226 7.495 A 0.982 0.982 0 0 0 57.587 6.779 A 1.278 1.278 0 0 0 57.59 6.695 A 1.077 1.077 0 0 0 57.546 6.381 A 0.864 0.864 0 0 0 57.343 6.032 A 1.663 1.663 0 0 0 56.892 5.699 A 2.019 2.019 0 0 0 56.726 5.623 A 5.797 5.797 0 0 0 56.467 5.526 Q 56.152 5.416 55.705 5.291 A 16.165 16.165 0 0 1 55.136 5.113 Q 54.631 4.944 54.269 4.778 A 2.496 2.496 0 0 1 53.37 4.075 A 2.934 2.934 0 0 1 53.32 4.011 A 1.795 1.795 0 0 1 53.011 3.371 Q 52.942 3.115 52.927 2.812 A 3.491 3.491 0 0 1 52.923 2.639 A 2.716 2.716 0 0 1 53.027 1.874 A 2.281 2.281 0 0 1 53.326 1.235 A 2.493 2.493 0 0 1 54.227 0.431 A 3.093 3.093 0 0 1 54.457 0.319 A 3.751 3.751 0 0 1 55.448 0.045 A 4.878 4.878 0 0 1 56.121 0 Q 57.525 0 58.403 0.683 A 2.467 2.467 0 0 1 59.339 2.308 A 3.407 3.407 0 0 1 59.371 2.587 L 57.369 2.587 A 1.034 1.034 0 0 0 57.006 1.843 A 1.307 1.307 0 0 0 56.973 1.814 A 1.281 1.281 0 0 0 56.464 1.563 Q 56.249 1.508 55.991 1.508 A 1.689 1.689 0 0 0 55.636 1.543 Q 55.344 1.606 55.14 1.781 A 0.88 0.88 0 0 0 54.855 2.26 A 1.358 1.358 0 0 0 54.821 2.574 Q 54.821 2.938 55.062 3.179 A 1.724 1.724 0 0 0 55.447 3.466 A 2.138 2.138 0 0 0 55.66 3.569 Q 56.017 3.718 56.667 3.913 A 15.335 15.335 0 0 1 57.26 4.1 Q 57.537 4.194 57.771 4.287 A 6.74 6.74 0 0 1 58.11 4.433 A 2.571 2.571 0 0 1 59.021 5.149 A 3.016 3.016 0 0 1 59.072 5.213 A 1.837 1.837 0 0 1 59.398 5.901 Q 59.475 6.209 59.475 6.578 Q 59.475 7.306 59.098 7.93 A 2.554 2.554 0 0 1 58.295 8.75 A 3.212 3.212 0 0 1 57.993 8.925 Q 57.265 9.295 56.264 9.295 A 4.767 4.767 0 0 1 55.282 9.198 A 3.875 3.875 0 0 1 54.555 8.97 A 3.006 3.006 0 0 1 53.782 8.499 A 2.638 2.638 0 0 1 53.352 8.034 Q 52.91 7.423 52.897 6.591 Z M 107.484 1.599 L 104.039 1.599 L 104.039 3.874 L 107.094 3.874 L 107.094 5.317 L 104.039 5.317 L 104.039 7.722 L 107.484 7.722 L 107.484 9.204 L 102.219 9.204 L 102.219 0.117 L 107.484 0.117 L 107.484 1.599 Z M 114.4 1.599 L 110.955 1.599 L 110.955 3.874 L 114.01 3.874 L 114.01 5.317 L 110.955 5.317 L 110.955 7.722 L 114.4 7.722 L 114.4 9.204 L 109.135 9.204 L 109.135 0.117 L 114.4 0.117 L 114.4 1.599 Z M 100.672 9.204 L 98.566 9.204 L 96.564 5.668 L 95.706 5.668 L 95.706 9.204 L 93.886 9.204 L 93.886 0.13 L 97.292 0.13 Q 98.245 0.13 98.942 0.434 A 2.976 2.976 0 0 1 99.086 0.501 A 2.901 2.901 0 0 1 99.732 0.934 A 2.382 2.382 0 0 1 100.198 1.502 A 2.71 2.71 0 0 1 100.567 2.815 A 3.227 3.227 0 0 1 100.568 2.912 Q 100.568 3.809 100.048 4.531 A 2.441 2.441 0 0 1 99.107 5.304 A 3.412 3.412 0 0 1 98.501 5.525 L 100.672 9.204 Z M 20.085 9.204 L 19.487 7.475 L 15.873 7.475 L 15.275 9.204 L 13.364 9.204 L 16.627 0.117 L 18.746 0.117 L 22.009 9.204 L 20.085 9.204 Z M 22.75 0.13 L 29.406 0.13 L 29.406 1.599 L 26.988 1.599 L 26.988 9.204 L 25.168 9.204 L 25.168 1.599 L 22.75 1.599 L 22.75 0.13 Z M 74.581 9.295 Q 73.307 9.295 72.241 8.697 Q 71.175 8.099 70.551 7.04 A 4.544 4.544 0 0 1 69.938 4.992 A 5.52 5.52 0 0 1 69.927 4.641 Q 69.927 3.315 70.551 2.256 Q 71.175 1.196 72.241 0.598 Q 73.307 0 74.581 0 A 4.782 4.782 0 0 1 76.418 0.351 A 4.581 4.581 0 0 1 76.928 0.598 Q 77.987 1.196 78.605 2.256 A 4.577 4.577 0 0 1 79.215 4.354 A 5.515 5.515 0 0 1 79.222 4.641 A 4.973 4.973 0 0 1 79.004 6.133 A 4.405 4.405 0 0 1 78.605 7.04 Q 77.987 8.099 76.921 8.697 Q 75.855 9.295 74.581 9.295 Z M 117.871 0.13 L 117.871 7.761 L 120.861 7.761 L 120.861 9.204 L 116.051 9.204 L 116.051 0.13 L 117.871 0.13 Z M 74.581 7.67 A 3.075 3.075 0 0 0 75.374 7.572 A 2.551 2.551 0 0 0 76.024 7.3 A 2.519 2.519 0 0 0 76.954 6.325 A 3.025 3.025 0 0 0 76.999 6.24 Q 77.35 5.551 77.35 4.641 Q 77.35 3.731 76.999 3.049 A 2.592 2.592 0 0 0 76.408 2.279 A 2.439 2.439 0 0 0 76.024 2.002 A 2.671 2.671 0 0 0 74.984 1.662 A 3.381 3.381 0 0 0 74.581 1.638 A 3.134 3.134 0 0 0 73.764 1.741 A 2.621 2.621 0 0 0 73.131 2.002 Q 72.501 2.366 72.15 3.049 Q 71.799 3.731 71.799 4.641 A 4 4 0 0 0 71.881 5.471 A 3.102 3.102 0 0 0 72.15 6.24 A 2.597 2.597 0 0 0 72.773 7.044 A 2.478 2.478 0 0 0 73.132 7.3 A 2.695 2.695 0 0 0 74.23 7.652 A 3.368 3.368 0 0 0 74.581 7.67 Z M 16.367 6.019 L 18.993 6.019 L 17.68 2.223 L 16.367 6.019 Z M 95.706 1.638 L 95.706 4.303 L 97.227 4.303 Q 97.968 4.303 98.332 3.946 A 1.173 1.173 0 0 0 98.649 3.373 Q 98.695 3.186 98.696 2.965 A 2.209 2.209 0 0 0 98.696 2.951 A 1.716 1.716 0 0 0 98.653 2.555 A 1.125 1.125 0 0 0 98.332 1.983 Q 98.049 1.715 97.538 1.655 A 2.689 2.689 0 0 0 97.227 1.638 L 95.706 1.638 Z"/></g></svg>