<svg width="94.214" height="12.156" viewBox="0 0 94.214 12.156" xmlns="http://www.w3.org/2000/svg"><g id="svgGroup" stroke-linecap="round" fill-rule="evenodd" font-size="9pt" stroke="#000" stroke-width="0" fill="#be70fc" style="stroke:#000;stroke-width:0;fill:#be70fc"><path d="M 37.23 0.17 L 39.916 0.17 L 39.916 12.036 L 37.536 12.036 L 37.536 4.318 L 34.357 12.036 L 32.555 12.036 L 29.359 4.318 L 29.359 12.036 L 26.979 12.036 L 26.979 0.17 L 29.682 0.17 L 33.456 8.993 L 37.23 0.17 Z M 11.594 3.859 L 8.857 3.859 Q 8.449 3.009 7.71 2.584 A 3.191 3.191 0 0 0 6.5 2.189 A 4.039 4.039 0 0 0 6.001 2.159 A 3.787 3.787 0 0 0 4.907 2.313 A 3.293 3.293 0 0 0 4.157 2.644 A 3.3 3.3 0 0 0 2.913 3.985 A 3.922 3.922 0 0 0 2.899 4.012 A 4.039 4.039 0 0 0 2.523 5.17 A 5.412 5.412 0 0 0 2.448 6.086 A 5.18 5.18 0 0 0 2.557 7.173 A 4.04 4.04 0 0 0 2.899 8.152 A 3.405 3.405 0 0 0 3.665 9.167 A 3.21 3.21 0 0 0 4.157 9.529 Q 4.964 10.013 6.001 10.013 A 3.68 3.68 0 0 0 6.939 9.898 A 3.046 3.046 0 0 0 7.71 9.58 A 2.812 2.812 0 0 0 8.722 8.552 A 3.511 3.511 0 0 0 8.857 8.296 L 11.594 8.296 Q 10.999 10.115 9.512 11.127 A 5.848 5.848 0 0 1 6.767 12.101 A 7.412 7.412 0 0 1 6.018 12.138 A 6.439 6.439 0 0 1 4.023 11.836 A 5.818 5.818 0 0 1 2.95 11.365 Q 1.581 10.591 0.791 9.214 Q 0 7.837 0 6.086 A 6.644 6.644 0 0 1 0.272 4.16 A 5.826 5.826 0 0 1 0.791 2.95 Q 1.581 1.564 2.95 0.791 A 6.019 6.019 0 0 1 5.598 0.029 A 7.213 7.213 0 0 1 6.018 0.017 A 6.548 6.548 0 0 1 8.019 0.314 A 5.692 5.692 0 0 1 9.503 1.037 Q 10.999 2.057 11.594 3.859 Z M 65.637 8.619 L 68.187 8.619 A 2.008 2.008 0 0 0 68.291 9.144 A 1.514 1.514 0 0 0 68.706 9.775 A 1.559 1.559 0 0 0 69.363 10.125 Q 69.601 10.188 69.883 10.198 A 3.004 3.004 0 0 0 69.989 10.2 A 2.804 2.804 0 0 0 70.514 10.154 Q 70.984 10.065 71.298 9.801 Q 71.774 9.401 71.774 8.755 A 1.408 1.408 0 0 0 71.717 8.344 A 1.13 1.13 0 0 0 71.451 7.888 A 2.174 2.174 0 0 0 70.862 7.452 A 2.64 2.64 0 0 0 70.644 7.353 A 7.58 7.58 0 0 0 70.305 7.226 Q 69.951 7.103 69.47 6.965 A 25.454 25.454 0 0 0 69.309 6.919 A 21.14 21.14 0 0 1 68.566 6.687 Q 67.905 6.465 67.431 6.248 A 3.264 3.264 0 0 1 66.256 5.329 A 3.837 3.837 0 0 1 66.19 5.245 Q 65.725 4.642 65.677 3.678 A 4.565 4.565 0 0 1 65.671 3.451 A 3.552 3.552 0 0 1 65.807 2.451 A 2.983 2.983 0 0 1 66.198 1.615 A 3.26 3.26 0 0 1 67.376 0.563 A 4.045 4.045 0 0 1 67.677 0.417 A 4.905 4.905 0 0 1 68.973 0.059 A 6.379 6.379 0 0 1 69.853 0 Q 71.51 0 72.606 0.727 A 3.757 3.757 0 0 1 72.837 0.893 A 3.226 3.226 0 0 1 74.061 3.018 A 4.456 4.456 0 0 1 74.103 3.383 L 71.485 3.383 A 1.352 1.352 0 0 0 71.011 2.41 A 1.71 1.71 0 0 0 70.967 2.372 A 1.675 1.675 0 0 0 70.301 2.043 Q 70.02 1.972 69.683 1.972 A 2.209 2.209 0 0 0 69.218 2.018 Q 68.836 2.101 68.57 2.329 A 1.15 1.15 0 0 0 68.198 2.955 A 1.776 1.776 0 0 0 68.153 3.366 A 1.182 1.182 0 0 0 68.221 3.774 A 1.041 1.041 0 0 0 68.468 4.157 A 2.254 2.254 0 0 0 68.972 4.533 A 2.795 2.795 0 0 0 69.25 4.667 Q 69.672 4.843 70.406 5.069 A 27.927 27.927 0 0 0 70.567 5.117 A 20.053 20.053 0 0 1 71.343 5.362 Q 71.986 5.579 72.454 5.797 A 3.363 3.363 0 0 1 73.645 6.733 A 3.945 3.945 0 0 1 73.712 6.817 A 2.403 2.403 0 0 1 74.138 7.717 Q 74.225 8.062 74.237 8.468 A 4.473 4.473 0 0 1 74.239 8.602 Q 74.239 9.554 73.746 10.37 A 3.34 3.34 0 0 1 72.696 11.443 A 4.201 4.201 0 0 1 72.301 11.671 A 4.316 4.316 0 0 1 71.117 12.063 A 5.954 5.954 0 0 1 70.04 12.155 A 6.233 6.233 0 0 1 68.757 12.028 A 5.067 5.067 0 0 1 67.805 11.73 A 3.931 3.931 0 0 1 66.794 11.114 A 3.45 3.45 0 0 1 66.232 10.506 A 3.134 3.134 0 0 1 65.657 8.956 A 3.949 3.949 0 0 1 65.637 8.619 Z M 83.181 2.091 L 78.676 2.091 L 78.676 5.066 L 82.671 5.066 L 82.671 6.953 L 78.676 6.953 L 78.676 10.098 L 83.181 10.098 L 83.181 12.036 L 76.296 12.036 L 76.296 0.153 L 83.181 0.153 L 83.181 2.091 Z M 94.214 12.036 L 91.46 12.036 L 88.842 7.412 L 87.72 7.412 L 87.72 12.036 L 85.34 12.036 L 85.34 0.17 L 89.794 0.17 Q 91.171 0.17 92.14 0.655 A 3.794 3.794 0 0 1 92.985 1.222 A 3.115 3.115 0 0 1 93.594 1.964 Q 94.078 2.788 94.078 3.808 Q 94.078 4.981 93.398 5.925 A 3.192 3.192 0 0 1 92.167 6.936 A 4.462 4.462 0 0 1 91.375 7.225 L 94.214 12.036 Z M 19.142 12.155 Q 17.476 12.155 16.082 11.373 Q 14.688 10.591 13.872 9.206 A 5.942 5.942 0 0 1 13.071 6.528 A 7.219 7.219 0 0 1 13.056 6.069 Q 13.056 4.335 13.872 2.95 Q 14.688 1.564 16.082 0.782 Q 17.476 0 19.142 0 A 6.253 6.253 0 0 1 21.545 0.459 A 5.991 5.991 0 0 1 22.211 0.782 Q 23.596 1.564 24.404 2.95 Q 25.211 4.335 25.211 6.069 A 6.504 6.504 0 0 1 24.926 8.02 A 5.761 5.761 0 0 1 24.404 9.206 Q 23.596 10.591 22.202 11.373 Q 20.808 12.155 19.142 12.155 Z M 58.106 12.155 Q 56.44 12.155 55.046 11.373 Q 53.652 10.591 52.836 9.206 A 5.942 5.942 0 0 1 52.035 6.528 A 7.219 7.219 0 0 1 52.02 6.069 Q 52.02 4.335 52.836 2.95 Q 53.652 1.564 55.046 0.782 Q 56.44 0 58.106 0 A 6.253 6.253 0 0 1 60.509 0.459 A 5.991 5.991 0 0 1 61.175 0.782 Q 62.56 1.564 63.368 2.95 Q 64.175 4.335 64.175 6.069 A 6.504 6.504 0 0 1 63.89 8.02 A 5.761 5.761 0 0 1 63.368 9.206 Q 62.56 10.591 61.166 11.373 Q 59.772 12.155 58.106 12.155 Z M 46.631 7.48 L 44.642 7.48 L 44.642 12.036 L 42.262 12.036 L 42.262 0.17 L 46.631 0.17 Q 47.868 0.17 48.775 0.554 A 3.931 3.931 0 0 1 48.977 0.646 A 3.678 3.678 0 0 1 49.836 1.222 A 3.078 3.078 0 0 1 50.431 1.955 Q 50.915 2.788 50.915 3.842 Q 50.915 4.794 50.465 5.627 A 3.117 3.117 0 0 1 49.534 6.672 A 4.059 4.059 0 0 1 49.054 6.97 Q 48.229 7.408 47.034 7.47 A 7.796 7.796 0 0 1 46.631 7.48 Z M 19.142 10.03 A 4.021 4.021 0 0 0 20.179 9.901 A 3.336 3.336 0 0 0 21.029 9.546 A 3.294 3.294 0 0 0 22.245 8.271 A 3.956 3.956 0 0 0 22.304 8.16 A 4.161 4.161 0 0 0 22.704 6.887 A 5.445 5.445 0 0 0 22.763 6.069 A 5.229 5.229 0 0 0 22.662 5.019 A 3.999 3.999 0 0 0 22.304 3.987 A 3.389 3.389 0 0 0 21.532 2.98 A 3.19 3.19 0 0 0 21.029 2.618 A 3.493 3.493 0 0 0 19.67 2.173 A 4.421 4.421 0 0 0 19.142 2.142 Q 18.071 2.142 17.247 2.618 A 3.253 3.253 0 0 0 15.978 3.959 A 3.891 3.891 0 0 0 15.963 3.987 A 4.081 4.081 0 0 0 15.569 5.219 A 5.395 5.395 0 0 0 15.504 6.069 Q 15.504 7.259 15.963 8.16 A 3.397 3.397 0 0 0 16.778 9.212 A 3.24 3.24 0 0 0 17.247 9.546 A 3.524 3.524 0 0 0 18.683 10.007 A 4.404 4.404 0 0 0 19.142 10.03 Z M 58.106 10.03 A 4.021 4.021 0 0 0 59.143 9.901 A 3.336 3.336 0 0 0 59.993 9.546 A 3.294 3.294 0 0 0 61.209 8.271 A 3.956 3.956 0 0 0 61.268 8.16 A 4.161 4.161 0 0 0 61.668 6.887 A 5.445 5.445 0 0 0 61.727 6.069 A 5.229 5.229 0 0 0 61.626 5.019 A 3.999 3.999 0 0 0 61.268 3.987 A 3.389 3.389 0 0 0 60.496 2.98 A 3.19 3.19 0 0 0 59.993 2.618 A 3.493 3.493 0 0 0 58.634 2.173 A 4.421 4.421 0 0 0 58.106 2.142 Q 57.035 2.142 56.211 2.618 A 3.253 3.253 0 0 0 54.942 3.959 A 3.891 3.891 0 0 0 54.927 3.987 A 4.081 4.081 0 0 0 54.533 5.219 A 5.395 5.395 0 0 0 54.468 6.069 Q 54.468 7.259 54.927 8.16 A 3.397 3.397 0 0 0 55.742 9.212 A 3.24 3.24 0 0 0 56.211 9.546 A 3.524 3.524 0 0 0 57.647 10.007 A 4.404 4.404 0 0 0 58.106 10.03 Z M 87.72 2.142 L 87.72 5.627 L 89.709 5.627 Q 90.336 5.627 90.757 5.432 A 1.411 1.411 0 0 0 91.154 5.16 Q 91.625 4.698 91.63 3.878 A 2.896 2.896 0 0 0 91.63 3.859 A 2.244 2.244 0 0 0 91.574 3.341 A 1.471 1.471 0 0 0 91.154 2.593 A 1.476 1.476 0 0 0 90.622 2.277 Q 90.394 2.197 90.115 2.165 A 3.517 3.517 0 0 0 89.709 2.142 L 87.72 2.142 Z M 46.529 2.108 L 44.642 2.108 L 44.642 5.559 L 46.529 5.559 A 3.427 3.427 0 0 0 47.068 5.52 Q 47.656 5.426 47.991 5.109 A 1.471 1.471 0 0 0 48.411 4.36 A 2.244 2.244 0 0 0 48.467 3.842 A 2.214 2.214 0 0 0 48.361 3.125 Q 48.023 2.138 46.615 2.109 A 4.189 4.189 0 0 0 46.529 2.108 Z" vector-effect="non-scaling-stroke"/></g></svg>