<svg width="61.36" height="14.301" viewBox="0 0 61.36 14.301" xmlns="http://www.w3.org/2000/svg"><g id="svgGroup" stroke-linecap="round" fill-rule="evenodd" font-size="9pt" stroke="#000" stroke-width="0" fill="#424144" style="stroke:#000;stroke-width:0;fill:#424144"><path d="M 16.58 0.2 L 19.6 0.2 L 15.7 14.16 L 12.4 14.16 L 9.78 4.22 L 7.04 14.16 L 3.76 14.18 L 0 0.2 L 3 0.2 L 5.46 11.04 L 8.3 0.2 L 11.42 0.2 L 14.1 10.98 L 16.58 0.2 Z M 61.36 14.16 L 57.82 14.16 L 52.74 7.94 L 52.74 14.16 L 49.94 14.16 L 49.94 0.2 L 52.74 0.2 L 52.74 6.46 L 57.82 0.2 L 61.2 0.2 L 55.44 7.12 L 61.36 14.16 Z M 47.56 14.16 L 44.32 14.16 L 41.24 8.72 L 39.92 8.72 L 39.92 14.16 L 37.12 14.16 L 37.12 0.2 L 42.36 0.2 A 7.716 7.716 0 0 1 43.597 0.294 Q 44.308 0.41 44.899 0.667 A 4.578 4.578 0 0 1 45.12 0.77 A 4.464 4.464 0 0 1 46.114 1.437 A 3.664 3.664 0 0 1 46.83 2.31 A 4.169 4.169 0 0 1 47.398 4.331 A 4.964 4.964 0 0 1 47.4 4.48 Q 47.4 5.86 46.6 6.97 A 3.755 3.755 0 0 1 45.152 8.16 A 5.249 5.249 0 0 1 44.22 8.5 L 47.56 14.16 Z M 27.9 14.3 Q 25.94 14.3 24.3 13.38 Q 22.66 12.46 21.7 10.83 A 6.99 6.99 0 0 1 20.757 7.68 A 8.493 8.493 0 0 1 20.74 7.14 Q 20.74 5.812 21.147 4.657 A 6.77 6.77 0 0 1 21.7 3.47 Q 22.66 1.84 24.3 0.92 Q 25.94 0 27.9 0 A 7.356 7.356 0 0 1 30.727 0.54 A 7.048 7.048 0 0 1 31.51 0.92 Q 33.14 1.84 34.09 3.47 A 7.041 7.041 0 0 1 35.029 6.699 A 8.485 8.485 0 0 1 35.04 7.14 A 7.651 7.651 0 0 1 34.705 9.435 A 6.778 6.778 0 0 1 34.09 10.83 Q 33.14 12.46 31.5 13.38 Q 29.86 14.3 27.9 14.3 Z M 27.9 11.8 Q 29.16 11.8 30.12 11.23 A 3.875 3.875 0 0 0 31.551 9.731 A 4.655 4.655 0 0 0 31.62 9.6 A 4.895 4.895 0 0 0 32.09 8.103 A 6.406 6.406 0 0 0 32.16 7.14 A 6.152 6.152 0 0 0 32.041 5.905 A 4.705 4.705 0 0 0 31.62 4.69 A 3.987 3.987 0 0 0 30.711 3.506 A 3.753 3.753 0 0 0 30.12 3.08 A 4.11 4.11 0 0 0 28.521 2.556 A 5.201 5.201 0 0 0 27.9 2.52 A 4.822 4.822 0 0 0 26.643 2.678 A 4.032 4.032 0 0 0 25.67 3.08 A 3.828 3.828 0 0 0 24.177 4.658 A 4.581 4.581 0 0 0 24.16 4.69 A 4.801 4.801 0 0 0 23.696 6.14 A 6.347 6.347 0 0 0 23.62 7.14 Q 23.62 8.54 24.16 9.6 A 3.996 3.996 0 0 0 25.119 10.837 A 3.812 3.812 0 0 0 25.67 11.23 A 4.146 4.146 0 0 0 27.36 11.773 A 5.181 5.181 0 0 0 27.9 11.8 Z M 39.92 2.52 L 39.92 6.62 L 42.26 6.62 A 3.769 3.769 0 0 0 42.886 6.572 Q 43.566 6.457 43.96 6.07 Q 44.514 5.527 44.52 4.562 A 3.397 3.397 0 0 0 44.52 4.54 A 2.64 2.64 0 0 0 44.454 3.931 A 1.731 1.731 0 0 0 43.96 3.05 A 1.737 1.737 0 0 0 43.333 2.679 Q 42.883 2.52 42.26 2.52 L 39.92 2.52 Z"/></g></svg>